<svg width="1033" height="758" viewBox="0 0 1033 758" fill="none" xmlns="http://www.w3.org/2000/svg">
<rect x="673.449" y="170.676" width="211.166" height="185.735" rx="6" fill="#29292A" fill-opacity="0.43"/>
<rect x="673.949" y="171.176" width="210.166" height="184.735" rx="5.5" stroke="#2949A9" stroke-opacity="0.67"/>
<rect x="536.477" y="366.449" width="216.873" height="45.1788" rx="15" fill="#2949A9"/>
<rect x="536.977" y="366.949" width="215.873" height="44.1788" rx="14.5" stroke="#2949A9" stroke-opacity="0.67"/>
<rect x="793.297" y="210.834" width="176.923" height="20.0795" rx="10.0397" fill="#2949A9"/>
<rect x="793.797" y="211.334" width="175.923" height="19.0795" rx="9.53973" stroke="#2949A9" stroke-opacity="0.67"/>
<rect x="776.176" y="250.994" width="176.923" height="20.0795" rx="10.0397" fill="#2949A9"/>
<rect x="776.676" y="251.494" width="175.923" height="19.0795" rx="9.53973" stroke="#2949A9" stroke-opacity="0.67"/>
<rect x="793.297" y="291.152" width="176.923" height="20.0795" rx="10.0397" fill="#2949A9"/>
<rect x="793.797" y="291.652" width="175.923" height="19.0795" rx="9.53973" stroke="#2949A9" stroke-opacity="0.67"/>
<rect x="108.438" y="421.668" width="131.265" height="45.1788" rx="15" fill="#2949A9"/>
<rect x="108.938" y="422.168" width="130.265" height="44.1788" rx="14.5" stroke="#2949A9" stroke-opacity="0.67"/>
<mask id="path-13-inside-1_194_124" fill="white">
<path fill-rule="evenodd" clip-rule="evenodd" d="M619.302 138.396C622.05 138.123 624.563 140.123 624.914 142.862L650.564 342.744C650.915 345.483 648.973 347.924 646.225 348.197L618.792 350.919L479.791 370.119L466.358 530.197C465.665 538.452 458.402 544.709 450.135 544.172L425.281 542.558C417.014 542.021 410.873 534.894 411.566 526.639L428.058 330.114L427.94 329.448C427.232 325.48 428.163 321.66 430.252 318.653C432.996 313.497 438.596 310.128 444.753 310.528L451.981 310.997L525.803 300.8L515.202 218.193L472.309 269.516C471.233 271.949 469.451 274.047 467.117 275.529C463.362 279.007 458.04 280.556 453.006 279.894L374.474 300.162C366.453 302.232 357.825 297.54 355.203 289.681L354.018 286.126C351.396 278.268 355.774 270.219 363.795 268.149L437.436 249.142L508.294 164.358L507.038 154.564C506.687 151.825 508.629 149.384 511.377 149.111L619.302 138.396Z"/>
</mask>
<path fill-rule="evenodd" clip-rule="evenodd" d="M619.302 138.396C622.05 138.123 624.563 140.123 624.914 142.862L650.564 342.744C650.915 345.483 648.973 347.924 646.225 348.197L618.792 350.919L479.791 370.119L466.358 530.197C465.665 538.452 458.402 544.709 450.135 544.172L425.281 542.558C417.014 542.021 410.873 534.894 411.566 526.639L428.058 330.114L427.94 329.448C427.232 325.48 428.163 321.66 430.252 318.653C432.996 313.497 438.596 310.128 444.753 310.528L451.981 310.997L525.803 300.8L515.202 218.193L472.309 269.516C471.233 271.949 469.451 274.047 467.117 275.529C463.362 279.007 458.04 280.556 453.006 279.894L374.474 300.162C366.453 302.232 357.825 297.54 355.203 289.681L354.018 286.126C351.396 278.268 355.774 270.219 363.795 268.149L437.436 249.142L508.294 164.358L507.038 154.564C506.687 151.825 508.629 149.384 511.377 149.111L619.302 138.396Z" fill="#29292A" fill-opacity="0.43"/>
<path d="M619.302 138.396L619.203 137.401V137.401L619.302 138.396ZM624.914 142.862L625.906 142.735V142.735L624.914 142.862ZM650.564 342.744L649.572 342.871V342.871L650.564 342.744ZM646.225 348.197L646.324 349.192H646.324L646.225 348.197ZM618.792 350.919L618.694 349.924L618.674 349.926L618.656 349.929L618.792 350.919ZM479.791 370.119L479.655 369.128L478.862 369.238L478.795 370.035L479.791 370.119ZM466.358 530.197L467.354 530.28V530.28L466.358 530.197ZM450.135 544.172L450.07 545.17H450.07L450.135 544.172ZM425.281 542.558L425.345 541.56H425.345L425.281 542.558ZM411.566 526.639L410.569 526.556V526.556L411.566 526.639ZM428.058 330.114L429.054 330.197L429.065 330.067L429.043 329.939L428.058 330.114ZM427.94 329.448L428.924 329.273L428.924 329.272L427.94 329.448ZM430.252 318.653L431.074 319.223L431.107 319.175L431.135 319.123L430.252 318.653ZM444.753 310.528L444.688 311.526L444.689 311.526L444.753 310.528ZM451.981 310.997L451.916 311.994L452.017 312.001L452.118 311.987L451.981 310.997ZM525.803 300.8L525.94 301.791L526.921 301.655L526.795 300.673L525.803 300.8ZM515.202 218.193L516.194 218.066L515.903 215.795L514.435 217.552L515.202 218.193ZM472.309 269.516L471.542 268.875L471.451 268.983L471.394 269.112L472.309 269.516ZM467.117 275.529L466.581 274.685L466.504 274.733L466.437 274.795L467.117 275.529ZM453.006 279.894L453.137 278.903L452.944 278.877L452.756 278.926L453.006 279.894ZM374.474 300.162L374.724 301.13H374.724L374.474 300.162ZM355.203 289.681L354.255 289.998L354.255 289.998L355.203 289.681ZM354.018 286.126L354.967 285.81L354.967 285.81L354.018 286.126ZM363.795 268.149L364.045 269.117H364.045L363.795 268.149ZM437.436 249.142L437.686 250.11L437.997 250.03L438.203 249.783L437.436 249.142ZM508.294 164.358L509.062 164.999L509.342 164.664L509.286 164.231L508.294 164.358ZM507.038 154.564L508.03 154.437L508.03 154.437L507.038 154.564ZM511.377 149.111L511.476 150.106V150.106L511.377 149.111ZM619.302 138.396L619.401 139.391C621.61 139.172 623.64 140.787 623.923 142.989L624.914 142.862L625.906 142.735C625.486 139.459 622.49 137.075 619.203 137.401L619.302 138.396ZM624.914 142.862L623.923 142.989L649.572 342.871L650.564 342.744L651.556 342.616L625.906 142.735L624.914 142.862ZM650.564 342.744L649.572 342.871C649.852 345.051 648.313 346.985 646.126 347.202L646.225 348.197L646.324 349.192C649.632 348.863 651.979 345.914 651.556 342.616L650.564 342.744ZM646.225 348.197L646.126 347.202L618.694 349.924L618.792 350.919L618.891 351.915L646.324 349.192L646.225 348.197ZM618.792 350.919L618.656 349.929L479.655 369.128L479.791 370.119L479.928 371.109L618.929 351.91L618.792 350.919ZM479.791 370.119L478.795 370.035L465.361 530.113L466.358 530.197L467.354 530.28L480.788 370.202L479.791 370.119ZM466.358 530.197L465.361 530.113C464.714 537.825 457.923 543.676 450.2 543.174L450.135 544.172L450.07 545.17C458.881 545.742 466.616 539.078 467.354 530.28L466.358 530.197ZM450.135 544.172L450.2 543.174L425.345 541.56L425.281 542.558L425.216 543.556L450.07 545.17L450.135 544.172ZM425.281 542.558L425.345 541.56C417.637 541.06 411.916 534.42 412.562 526.723L411.566 526.639L410.569 526.556C409.83 535.369 416.391 542.983 425.216 543.556L425.281 542.558ZM411.566 526.639L412.562 526.723L429.054 330.197L428.058 330.114L427.061 330.03L410.569 526.556L411.566 526.639ZM428.058 330.114L429.043 329.939L428.924 329.273L427.94 329.448L426.955 329.622L427.073 330.288L428.058 330.114ZM427.94 329.448L428.924 329.272C428.263 325.569 429.133 322.017 431.074 319.223L430.252 318.653L429.431 318.082C427.194 321.303 426.2 325.39 426.955 329.623L427.94 329.448ZM430.252 318.653L431.135 319.123C433.702 314.298 438.941 311.153 444.688 311.526L444.753 310.528L444.818 309.53C438.252 309.104 432.29 312.696 429.37 318.183L430.252 318.653ZM444.753 310.528L444.689 311.526L451.916 311.994L451.981 310.997L452.046 309.999L444.818 309.53L444.753 310.528ZM451.981 310.997L452.118 311.987L525.94 301.791L525.803 300.8L525.666 299.81L451.844 310.006L451.981 310.997ZM525.803 300.8L526.795 300.673L516.194 218.066L515.202 218.193L514.211 218.32L524.811 300.928L525.803 300.8ZM515.202 218.193L514.435 217.552L471.542 268.875L472.309 269.516L473.076 270.157L515.97 218.834L515.202 218.193ZM472.309 269.516L471.394 269.112C470.398 271.364 468.747 273.309 466.581 274.685L467.117 275.529L467.653 276.373C470.154 274.785 472.068 272.533 473.223 269.921L472.309 269.516ZM467.117 275.529L466.437 274.795C462.914 278.059 457.894 279.528 453.137 278.903L453.006 279.894L452.876 280.885C458.185 281.584 463.81 279.955 467.796 276.262L467.117 275.529ZM453.006 279.894L452.756 278.926L374.224 299.193L374.474 300.162L374.724 301.13L453.256 280.862L453.006 279.894ZM374.474 300.162L374.224 299.193C366.711 301.132 358.607 296.725 356.152 289.365L355.203 289.681L354.255 289.998C357.043 298.354 366.194 303.331 374.724 301.13L374.474 300.162ZM355.203 289.681L356.152 289.365L354.967 285.81L354.018 286.126L353.069 286.443L354.255 289.998L355.203 289.681ZM354.018 286.126L354.967 285.81C352.528 278.501 356.585 271.043 364.045 269.117L363.795 268.149L363.545 267.181C354.963 269.396 350.264 278.035 353.069 286.443L354.018 286.126ZM363.795 268.149L364.045 269.117L437.686 250.11L437.436 249.142L437.186 248.174L363.545 267.181L363.795 268.149ZM437.436 249.142L438.203 249.783L509.062 164.999L508.294 164.358L507.527 163.717L436.669 248.501L437.436 249.142ZM508.294 164.358L509.286 164.231L508.03 154.437L507.038 154.564L506.047 154.691L507.302 164.485L508.294 164.358ZM507.038 154.564L508.03 154.437C507.751 152.257 509.289 150.323 511.476 150.106L511.377 149.111L511.279 148.116C507.97 148.444 505.623 151.393 506.047 154.691L507.038 154.564ZM511.377 149.111L511.476 150.106L619.401 139.391L619.302 138.396L619.203 137.401L511.279 148.116L511.377 149.111Z" fill="#2949A9" fill-opacity="0.67" mask="url(#path-13-inside-1_194_124)"/>
<ellipse cx="373.819" cy="208.324" rx="31.3895" ry="27.6093" fill="#2949A9"/>
<path d="M373.819 181.215C390.941 181.215 404.709 193.411 404.709 208.324C404.709 223.238 390.941 235.434 373.819 235.434C356.697 235.434 342.93 223.238 342.93 208.324C342.93 193.411 356.697 181.215 373.819 181.215Z" stroke="#2949A9" stroke-opacity="0.67"/>
<mask id="path-17-inside-2_194_124" fill="white">
<path d="M816.127 582.304C816.127 640.524 762.468 687.721 696.277 687.721C630.085 687.721 576.426 640.524 576.426 582.304C576.426 524.084 630.085 476.887 696.277 476.887C762.468 476.887 816.127 524.084 816.127 582.304ZM636.351 582.304C636.351 611.414 663.181 635.013 696.277 635.013C729.372 635.013 756.202 611.414 756.202 582.304C756.202 553.194 729.372 529.595 696.277 529.595C663.181 529.595 636.351 553.194 636.351 582.304Z"/>
</mask>
<path d="M816.127 582.304C816.127 640.524 762.468 687.721 696.277 687.721C630.085 687.721 576.426 640.524 576.426 582.304C576.426 524.084 630.085 476.887 696.277 476.887C762.468 476.887 816.127 524.084 816.127 582.304ZM636.351 582.304C636.351 611.414 663.181 635.013 696.277 635.013C729.372 635.013 756.202 611.414 756.202 582.304C756.202 553.194 729.372 529.595 696.277 529.595C663.181 529.595 636.351 553.194 636.351 582.304Z" fill="#2949A9" stroke="#2949A9" stroke-opacity="0.67" stroke-width="2" mask="url(#path-17-inside-2_194_124)"/>
<rect x="268.238" y="547.164" width="353.845" height="45.1788" rx="15" fill="#29292A" fill-opacity="0.43"/>
<rect x="268.738" y="547.664" width="352.845" height="44.1788" rx="14.5" stroke="#2949A9" stroke-opacity="0.67"/>
<mask id="path-20-inside-3_194_124" fill="white">
<path d="M338.844 271.074C347.128 271.074 353.844 277.79 353.844 286.074V321.332C353.844 329.616 347.128 336.332 338.844 336.332H333.928L276.568 524.622C274.154 532.546 265.661 537.429 257.598 535.529L237.183 530.719C229.119 528.818 224.54 520.853 226.954 512.929L280.752 336.332H237.578C229.294 336.332 222.578 329.616 222.578 321.332V286.074C222.578 277.79 229.294 271.074 237.578 271.074H338.844Z"/>
</mask>
<path d="M338.844 271.074C347.128 271.074 353.844 277.79 353.844 286.074V321.332C353.844 329.616 347.128 336.332 338.844 336.332H333.928L276.568 524.622C274.154 532.546 265.661 537.429 257.598 535.529L237.183 530.719C229.119 528.818 224.54 520.853 226.954 512.929L280.752 336.332H237.578C229.294 336.332 222.578 329.616 222.578 321.332V286.074C222.578 277.79 229.294 271.074 237.578 271.074H338.844Z" fill="#29292A" fill-opacity="0.43"/>
<path d="M338.844 271.074L338.844 270.074H338.844V271.074ZM338.844 336.332V337.332H338.844L338.844 336.332ZM333.928 336.332V335.332H333.187L332.971 336.041L333.928 336.332ZM276.568 524.622L277.525 524.914L277.525 524.913L276.568 524.622ZM257.598 535.529L257.827 534.556H257.827L257.598 535.529ZM237.183 530.719L236.953 531.692H236.953L237.183 530.719ZM226.954 512.929L225.998 512.637H225.998L226.954 512.929ZM280.752 336.332L281.709 336.623L282.102 335.332H280.752V336.332ZM237.578 336.332L237.578 337.332H237.578V336.332ZM237.578 271.074V270.074H237.578L237.578 271.074ZM338.844 271.074L338.844 272.074C346.576 272.074 352.844 278.342 352.844 286.074H353.844H354.844C354.844 277.238 347.68 270.074 338.844 270.074L338.844 271.074ZM353.844 286.074H352.844V321.332H353.844H354.844V286.074H353.844ZM353.844 321.332H352.844C352.844 329.064 346.576 335.332 338.844 335.332L338.844 336.332L338.844 337.332C347.68 337.332 354.844 330.168 354.844 321.332H353.844ZM338.844 336.332V335.332H333.928V336.332V337.332H338.844V336.332ZM333.928 336.332L332.971 336.041L275.612 524.331L276.568 524.622L277.525 524.913L334.884 336.623L333.928 336.332ZM276.568 524.622L275.612 524.331C273.351 531.751 265.377 536.335 257.827 534.556L257.598 535.529L257.368 536.503C265.945 538.524 274.957 533.342 277.525 524.914L276.568 524.622ZM257.598 535.529L257.827 534.556L237.412 529.745L237.183 530.719L236.953 531.692L257.368 536.503L257.598 535.529ZM237.183 530.719L237.412 529.745C229.911 527.977 225.665 520.592 227.911 513.22L226.954 512.929L225.998 512.637C223.415 521.114 228.328 529.659 236.953 531.692L237.183 530.719ZM226.954 512.929L227.911 513.22L281.709 336.623L280.752 336.332L279.795 336.041L225.998 512.637L226.954 512.929ZM280.752 336.332V335.332H237.578V336.332V337.332H280.752V336.332ZM237.578 336.332L237.578 335.332C229.846 335.332 223.578 329.064 223.578 321.332H222.578H221.578C221.578 330.169 228.742 337.332 237.578 337.332L237.578 336.332ZM222.578 321.332H223.578V286.074H222.578H221.578V321.332H222.578ZM222.578 286.074H223.578C223.578 278.342 229.846 272.074 237.578 272.074L237.578 271.074L237.578 270.074C228.742 270.074 221.578 277.238 221.578 286.074H222.578ZM237.578 271.074V272.074H338.844V271.074V270.074H237.578V271.074Z" fill="#2949A9" fill-opacity="0.67" mask="url(#path-20-inside-3_194_124)"/>
<ellipse cx="248.261" cy="303.702" rx="42.8039" ry="37.649" fill="#2949A9"/>
<path d="M248.261 266.553C271.687 266.553 290.564 283.244 290.564 303.702C290.564 324.16 271.687 340.851 248.261 340.851C224.835 340.851 205.957 324.16 205.957 303.702C205.957 283.244 224.835 266.553 248.261 266.553Z" stroke="#2949A9" stroke-opacity="0.67"/>
<path d="M325.309 276.092L341.423 224.459L370.966 215.854" stroke="#2949A9" stroke-opacity="0.67" stroke-linecap="round" stroke-linejoin="round"/>
<ellipse cx="547.888" cy="80.3178" rx="57.0718" ry="50.1987" fill="#29292A" fill-opacity="0.43"/>
<path d="M547.889 30.6191C579.194 30.6194 604.46 52.9282 604.46 80.3174C604.46 107.707 579.194 130.016 547.889 130.017C516.583 130.017 491.316 107.707 491.316 80.3174C491.317 52.9281 516.583 30.6191 547.889 30.6191Z" stroke="#2949A9" stroke-opacity="0.67"/>
<mask id="path-27-inside-4_194_124" fill="white">
<path d="M607.431 91.093C609.026 91.5393 610.785 90.6393 611.259 89.0587C613.409 81.8843 614.002 74.4083 612.996 67.024C611.856 58.6587 608.691 50.6055 603.713 43.4071C598.736 36.2088 592.062 30.0326 584.141 25.2948C576.221 20.5571 567.237 17.3679 557.797 15.9421C548.356 14.5164 538.678 14.8873 529.414 17.0298C520.15 19.1723 511.516 23.0366 504.094 28.3623C496.672 33.688 490.634 40.3514 486.387 47.9032C482.608 54.6227 480.326 61.9066 479.651 69.3627C479.511 70.9205 480.743 72.1765 482.364 72.2224L546.073 74.0261C546.327 74.0333 546.578 74.0709 546.818 74.1383L607.431 91.093Z"/>
</mask>
<path d="M607.431 91.093C609.026 91.5393 610.785 90.6393 611.259 89.0587C613.409 81.8843 614.002 74.4083 612.996 67.024C611.856 58.6587 608.691 50.6055 603.713 43.4071C598.736 36.2088 592.062 30.0326 584.141 25.2948C576.221 20.5571 567.237 17.3679 557.797 15.9421C548.356 14.5164 538.678 14.8873 529.414 17.0298C520.15 19.1723 511.516 23.0366 504.094 28.3623C496.672 33.688 490.634 40.3514 486.387 47.9032C482.608 54.6227 480.326 61.9066 479.651 69.3627C479.511 70.9205 480.743 72.1765 482.364 72.2224L546.073 74.0261C546.327 74.0333 546.578 74.0709 546.818 74.1383L607.431 91.093Z" fill="#2949A9" stroke="#2949A9" stroke-opacity="0.67" stroke-width="2" mask="url(#path-27-inside-4_194_124)"/>
<mask id="path-28-inside-5_194_124" fill="white">
<path d="M296.772 582.304C296.772 640.524 243.113 687.721 176.921 687.721C110.729 687.721 57.0703 640.524 57.0703 582.304C57.0703 524.084 110.729 476.887 176.921 476.887C243.113 476.887 296.772 524.084 296.772 582.304ZM116.996 582.304C116.996 611.414 143.825 635.013 176.921 635.013C210.017 635.013 236.847 611.414 236.847 582.304C236.847 553.194 210.017 529.595 176.921 529.595C143.825 529.595 116.996 553.194 116.996 582.304Z"/>
</mask>
<path d="M296.772 582.304C296.772 640.524 243.113 687.721 176.921 687.721C110.729 687.721 57.0703 640.524 57.0703 582.304C57.0703 524.084 110.729 476.887 176.921 476.887C243.113 476.887 296.772 524.084 296.772 582.304ZM116.996 582.304C116.996 611.414 143.825 635.013 176.921 635.013C210.017 635.013 236.847 611.414 236.847 582.304C236.847 553.194 210.017 529.595 176.921 529.595C143.825 529.595 116.996 553.194 116.996 582.304Z" fill="#2949A9" stroke="#2949A9" stroke-opacity="0.67" stroke-width="2" mask="url(#path-28-inside-5_194_124)"/>
<rect x="536.477" y="421.668" width="331.017" height="170.675" rx="15" fill="#29292A" fill-opacity="0.43"/>
<rect x="536.977" y="422.168" width="330.017" height="169.675" rx="14.5" stroke="#2949A9" stroke-opacity="0.67"/>
<rect y="727.879" width="633.497" height="30.1192" rx="3" fill="#2949A9"/>
<rect x="0.75" y="728.629" width="631.997" height="28.6192" rx="2.25" stroke="#2949A9" stroke-opacity="0.67" stroke-width="1.5"/>
<rect x="838.957" y="727.879" width="114.144" height="30.1192" rx="3" fill="#2949A9"/>
<rect x="839.707" y="728.629" width="112.644" height="28.6192" rx="2.25" stroke="#2949A9" stroke-opacity="0.67" stroke-width="1.5"/>
<rect x="656.324" y="727.879" width="159.801" height="30.1192" rx="3" fill="#2949A9"/>
<rect x="657.074" y="728.629" width="158.301" height="28.6192" rx="2.25" stroke="#2949A9" stroke-opacity="0.67" stroke-width="1.5"/>
<rect x="975.93" y="727.879" width="57.0718" height="30.1192" rx="3" fill="#2949A9"/>
<rect x="976.68" y="728.629" width="55.5718" height="28.6192" rx="2.25" stroke="#2949A9" stroke-opacity="0.67" stroke-width="1.5"/>
</svg>
