<svg width="215" height="215" viewBox="0 0 215 215" fill="none" xmlns="http://www.w3.org/2000/svg">
<path fill-rule="evenodd" clip-rule="evenodd" d="M53.7519 26.8737C41.3804 26.8737 30.1915 31.8815 22.0752 39.9887L9.40812 27.3217C15.2257 21.4909 22.1379 16.8669 29.7478 13.7153C37.3577 10.5637 45.5152 8.94671 53.7519 8.95708C71.0683 8.95708 86.7544 15.9894 98.0956 27.3217L85.4285 39.9887C81.2743 35.8218 76.3368 32.5177 70.9003 30.2669C65.4639 28.016 59.6359 26.8629 53.7519 26.8737ZM179.169 80.6237C179.169 90.1273 175.393 99.2417 168.673 105.962C161.953 112.682 152.839 116.457 143.335 116.457C133.832 116.457 124.717 112.682 117.997 105.962C111.277 99.2417 107.502 90.1273 107.502 80.6237C107.502 71.1202 111.277 62.0058 117.997 55.2858C124.717 48.5657 133.832 44.7904 143.335 44.7904C152.839 44.7904 161.953 48.5657 168.673 55.2858C175.393 62.0058 179.169 71.1202 179.169 80.6237ZM206.044 146.674C186.985 135.651 165.352 129.862 143.335 129.895C133.839 129.895 124.594 130.952 115.699 132.949L123.645 156.77H156.773V188.124H206.044V146.674ZM113.952 170.207H143.335V188.124H29.3762L5.48438 116.457H96.0442L102.763 136.613L113.952 170.207ZM41.0937 58.9983C44.3367 55.7465 48.8069 53.7487 53.7519 53.7487C58.6969 53.7487 63.1671 55.7465 66.419 58.9983L79.104 46.3312C75.7752 43.0014 71.8228 40.3603 67.4727 38.5588C63.1227 36.7573 58.4602 35.8307 53.7519 35.8321C44.2491 35.8341 35.1362 39.6107 28.4177 46.3312L41.0937 58.9983Z" fill="black"/>
</svg>
